<?xml version="1.0" encoding="UTF-8" standalone="no" ?>
<!DOCTYPE svg PUBLIC "-//W3C//DTD SVG 1.1//EN" "http://www.w3.org/Graphics/SVG/1.1/DTD/svg11.dtd">
<svg xmlns="http://www.w3.org/2000/svg" xmlns:xlink="http://www.w3.org/1999/xlink" version="1.1" width="1080" height="1080" viewBox="0 0 1080 1080" xml:space="preserve">
<desc>Created with Fabric.js 5.2.4</desc>
<defs>
</defs>
<g transform="matrix(1 0 0 1 540 540)" id="2b921055-4b4f-48d0-bc03-b2d052ab29e7"  >
<rect style="stroke: none; stroke-width: 1; stroke-dasharray: none; stroke-linecap: butt; stroke-dashoffset: 0; stroke-linejoin: miter; stroke-miterlimit: 4; fill: rgb(255,255,255); fill-rule: nonzero; opacity: 1; visibility: hidden;" vector-effect="non-scaling-stroke"  x="-540" y="-540" rx="0" ry="0" width="1080" height="1080" />
</g>
<g transform="matrix(1 0 0 1 540 540)" id="ce35716a-2c7e-4b44-a592-d6212484fada"  >
</g>
<g transform="matrix(4.22 0 0 4.22 540 540)"  >
<g style=""   >
		<g transform="matrix(1 0 0 1 0 0)"  >
<rect style="stroke: none; stroke-width: 1; stroke-dasharray: none; stroke-linecap: butt; stroke-dashoffset: 0; stroke-linejoin: miter; stroke-miterlimit: 4; fill: rgb(100,21,255); fill-rule: nonzero; opacity: 1;" vector-effect="non-scaling-stroke"  x="-116" y="-116" rx="13" ry="13" width="232" height="232" />
</g>
		<g transform="matrix(1 0 0 1 -0.03 0.27)"  >
<path style="stroke: none; stroke-width: 1; stroke-dasharray: none; stroke-linecap: butt; stroke-dashoffset: 0; stroke-linejoin: miter; stroke-miterlimit: 4; fill: rgb(255,255,255); fill-rule: nonzero; opacity: 1;" vector-effect="non-scaling-stroke"  transform=" translate(-127.97, -128.27)" d="M 78.6614 96.3636 L 112.786 96.3636 L 112.786 185 L 143.144 185 L 143.144 96.3636 L 177.269 96.3636 L 177.269 71.5455 L 78.6614 71.5455 L 78.6614 96.3636 Z" stroke-linecap="round" />
</g>
</g>
</g>
<g transform="matrix(3.98 0 0 2.83 623.87 511.14)" id="224a81d3-7597-4def-b61d-8c2101ccbf8d"  >
<rect style="stroke: rgb(0,0,0); stroke-width: 0; stroke-dasharray: none; stroke-linecap: butt; stroke-dashoffset: 0; stroke-linejoin: miter; stroke-miterlimit: 4; fill: rgb(255,255,255); fill-rule: nonzero; opacity: 1;" vector-effect="non-scaling-stroke"  x="-37.4585" y="-19.4165" rx="0" ry="0" width="74.917" height="38.833" />
</g>
<g transform="matrix(4.15 0 0 2.83 631.69 352.27)" id="224a81d3-7597-4def-b61d-8c2101ccbf8d"  >
<rect style="stroke: rgb(0,0,0); stroke-width: 0; stroke-dasharray: none; stroke-linecap: butt; stroke-dashoffset: 0; stroke-linejoin: miter; stroke-miterlimit: 4; fill: rgb(255,255,255); fill-rule: nonzero; opacity: 1;" vector-effect="non-scaling-stroke"  x="-37.46" y="-19.415" rx="0" ry="0" width="74.92" height="38.83" />
</g>
<g transform="matrix(2.79 0 0 2.79 371.49 355.25)" id="8fa3ccf8-b3f3-4ce9-8c3c-c0394100ccbb"  >
<rect style="stroke: rgb(0,0,0); stroke-width: 0; stroke-dasharray: none; stroke-linecap: butt; stroke-dashoffset: 0; stroke-linejoin: miter; stroke-miterlimit: 4; fill: rgb(98,21,255); fill-rule: nonzero; opacity: 1;" vector-effect="non-scaling-stroke"  x="-37.4585" y="-19.4165" rx="0" ry="0" width="74.917" height="38.833" />
</g>
</svg>